<svg width="133" height="33" viewBox="0 0 133 33" fill="none" xmlns="http://www.w3.org/2000/svg">
<g clip-path="url(#clip0_1_3091)">
<path d="M40.3154 23.3865H49.5958V20.5767H43.6139V9.99329H40.3154V23.3865Z" fill="#999999"/>
<path d="M55.094 21.5133C53.7709 21.5133 53.0814 20.3519 53.0814 18.6099C53.0814 16.8678 53.7709 15.6877 55.094 15.6877C56.4171 15.6877 57.1253 16.8678 57.1253 18.6099C57.1253 20.3519 56.4171 21.5133 55.094 21.5133ZM55.1127 23.6862C58.1875 23.6862 60.2001 21.4945 60.2001 18.6099C60.2001 15.7252 58.1875 13.5336 55.1127 13.5336C52.0565 13.5336 50.0066 15.7252 50.0066 18.6099C50.0066 21.4945 52.0565 23.6862 55.1127 23.6862Z" fill="#999999"/>
<path d="M65.5225 26.7019C66.9388 26.7019 68.1874 26.3835 69.0259 25.6342C69.79 24.9411 70.2931 23.8921 70.2931 22.4498V13.7957H67.386V14.826H67.3488C66.7897 14.0205 65.9325 13.5148 64.6653 13.5148C62.2986 13.5148 60.6587 15.5003 60.6587 18.3101C60.6587 21.251 62.6527 22.8619 64.7957 22.8619C65.9511 22.8619 66.6779 22.3936 67.237 21.7567H67.3115V22.712C67.3115 23.8734 66.7711 24.5477 65.4852 24.5477C64.4789 24.5477 63.9758 24.1169 63.8081 23.6112H60.8637C61.1618 25.6155 62.8949 26.7019 65.5225 26.7019ZM65.5039 20.5954C64.3671 20.5954 63.6217 19.6588 63.6217 18.2164C63.6217 16.7554 64.3671 15.8188 65.5039 15.8188C66.7711 15.8188 67.4419 16.9052 67.4419 18.1977C67.4419 19.5464 66.827 20.5954 65.5039 20.5954Z" fill="#999999"/>
<path d="M76.2705 21.5133C74.9474 21.5133 74.2579 20.3519 74.2579 18.6099C74.2579 16.8678 74.9474 15.6877 76.2705 15.6877C77.5936 15.6877 78.3015 16.8678 78.3015 18.6099C78.3015 20.3519 77.5936 21.5133 76.2705 21.5133ZM76.2892 23.6862C79.3637 23.6862 81.3763 21.4945 81.3763 18.6099C81.3763 15.7252 79.3637 13.5336 76.2892 13.5336C73.233 13.5336 71.1831 15.7252 71.1831 18.6099C71.1831 21.4945 73.233 23.6862 76.2892 23.6862Z" fill="#999999"/>
<path d="M82.2639 23.3865H85.3015V13.7958H82.2639V23.3865ZM82.2639 12.4659H85.3015V9.99329H82.2639V12.4659Z" fill="#999999"/>
<path d="M86.6191 26.552H89.6567V22.3936H89.694C90.2903 23.1991 91.1661 23.6861 92.3961 23.6861C94.8932 23.6861 96.5518 21.7005 96.5518 18.5911C96.5518 15.7064 95.005 13.5148 92.4706 13.5148C91.1661 13.5148 90.2344 14.0955 89.5821 14.9571H89.5262V13.7957H86.6191V26.552ZM91.6134 21.3259C90.3089 21.3259 89.5635 20.2582 89.5635 18.7035C89.5635 17.1487 90.2344 15.9686 91.5575 15.9686C92.862 15.9686 93.4769 17.0551 93.4769 18.7035C93.4769 20.3331 92.7688 21.3259 91.6134 21.3259Z" fill="#999999"/>
<path d="M101.497 23.6861C103.994 23.6861 105.839 22.5996 105.839 20.5017C105.839 18.0478 103.864 17.617 102.187 17.336C100.975 17.1113 99.8945 17.0176 99.8945 16.3433C99.8945 15.7438 100.472 15.4629 101.218 15.4629C102.056 15.4629 102.634 15.7251 102.746 16.5868H105.541C105.392 14.6949 103.938 13.5148 101.236 13.5148C98.9814 13.5148 97.1178 14.5637 97.1178 16.5868C97.1178 18.8346 98.8882 19.2841 100.547 19.5651C101.814 19.7899 102.969 19.8836 102.969 20.7452C102.969 21.3634 102.392 21.7005 101.478 21.7005C100.472 21.7005 99.8386 21.2322 99.7268 20.2769H96.8569C96.9501 22.3936 98.7018 23.6861 101.497 23.6861Z" fill="#999999"/>
<path d="M109.965 23.6674C111.288 23.6674 112.127 23.1429 112.816 22.2063H112.872V23.3864H115.779V13.7958H112.742V19.153C112.742 20.2957 112.108 21.0824 111.065 21.0824C110.096 21.0824 109.63 20.5017 109.63 19.4528V13.7958H106.611V20.0896C106.611 22.225 107.766 23.6674 109.965 23.6674Z" fill="#999999"/>
<path d="M117.101 23.3864H120.139V18.0104C120.139 16.8677 120.698 16.0623 121.648 16.0623C122.561 16.0623 122.99 16.6617 122.99 17.6919V23.3864H126.027V18.0104C126.027 16.8677 126.568 16.0623 127.537 16.0623C128.45 16.0623 128.879 16.6617 128.879 17.6919V23.3864H131.916V17.1487C131.916 14.9946 130.835 13.5148 128.674 13.5148C127.444 13.5148 126.419 14.0393 125.673 15.2006H125.636C125.152 14.1704 124.201 13.5148 122.953 13.5148C121.574 13.5148 120.66 14.1704 120.064 15.1632H120.008V13.7957H117.101V23.3864Z" fill="#999999"/>
<path fill-rule="evenodd" clip-rule="evenodd" d="M16.1082 31.9718C24.685 31.9718 31.6376 24.9831 31.6376 16.362C31.6376 7.74104 24.685 0.752319 16.1082 0.752319C7.5316 0.752319 0.578857 7.74104 0.578857 16.362C0.578857 24.9831 7.5316 31.9718 16.1082 31.9718ZM18.5052 12.8129C19.8289 11.4822 19.8289 9.32485 18.5052 7.9942C17.1814 6.66356 15.0352 6.66356 13.7113 7.9942C12.3876 9.32485 12.3876 11.4822 13.7113 12.8129L16.1082 15.2221L18.5052 12.8129ZM19.6392 18.7714C20.963 20.1021 23.1093 20.1021 24.4331 18.7714C25.7568 17.4408 25.7568 15.2834 24.4331 13.9528C23.1093 12.6222 20.963 12.6222 19.6392 13.9528L17.2423 16.3621L19.6392 18.7714ZM18.5052 24.73C19.8289 23.3993 19.8289 21.242 18.5052 19.9113L16.1082 17.502L13.7113 19.9113C12.3876 21.242 12.3876 23.3993 13.7113 24.73C15.0352 26.0606 17.1814 26.0606 18.5052 24.73ZM7.78344 18.7714C6.45968 17.4408 6.45968 15.2834 7.78344 13.9528C9.10727 12.6222 11.2535 12.6222 12.5773 13.9528L14.9742 16.3621L12.5773 18.7714C11.2535 20.1021 9.10727 20.1021 7.78344 18.7714Z" fill="#999999"/>
</g>
<defs>
<clipPath id="clip0_1_3091">
<rect width="132" height="32" fill="white" transform="translate(0.5 0.5)"/>
</clipPath>
</defs>
</svg>
