<svg width="130" height="33" viewBox="0 0 130 33" fill="none" xmlns="http://www.w3.org/2000/svg">
<g clip-path="url(#clip0_1_3053)">
<path d="M38.0651 22.973H47.2974V20.1632H41.3465V9.57983H38.0651V22.973Z" fill="#999999"/>
<path d="M52.7673 21.0998C51.451 21.0998 50.7651 19.9385 50.7651 18.1964C50.7651 16.4544 51.451 15.2743 52.7673 15.2743C54.0836 15.2743 54.788 16.4544 54.788 18.1964C54.788 19.9385 54.0836 21.0998 52.7673 21.0998ZM52.7858 23.2727C55.8448 23.2727 57.847 21.0811 57.847 18.1964C57.847 15.3117 55.8448 13.1201 52.7858 13.1201C49.7455 13.1201 47.7062 15.3117 47.7062 18.1964C47.7062 21.0811 49.7455 23.2727 52.7858 23.2727Z" fill="#999999"/>
<path d="M63.1418 26.2886C64.5507 26.2886 65.7928 25.9701 66.6271 25.2209C67.3872 24.5278 67.8877 23.4788 67.8877 22.0365V13.3824H64.9957V14.4127H64.9586C64.4024 13.6072 63.5496 13.1014 62.289 13.1014C59.9345 13.1014 58.3031 15.087 58.3031 17.8968C58.3031 20.8376 60.2868 22.4486 62.4187 22.4486C63.5682 22.4486 64.2912 21.9803 64.8473 21.3434H64.9215V22.2987C64.9215 23.4601 64.3839 24.1344 63.1047 24.1344C62.1036 24.1344 61.603 23.7036 61.4362 23.1978H58.507C58.8037 25.2021 60.5278 26.2886 63.1418 26.2886ZM63.1232 20.182C61.9923 20.182 61.2508 19.2454 61.2508 17.8031C61.2508 16.342 61.9923 15.4054 63.1232 15.4054C64.3839 15.4054 65.0513 16.4919 65.0513 17.7844C65.0513 19.133 64.4395 20.182 63.1232 20.182Z" fill="#999999"/>
<path d="M73.8343 21.0998C72.5181 21.0998 71.8321 19.9385 71.8321 18.1964C71.8321 16.4544 72.5181 15.2743 73.8343 15.2743C75.1506 15.2743 75.8551 16.4544 75.8551 18.1964C75.8551 19.9385 75.1506 21.0998 73.8343 21.0998ZM73.8529 23.2727C76.9118 23.2727 78.9142 21.0811 78.9142 18.1964C78.9142 15.3117 76.9118 13.1201 73.8529 13.1201C70.8125 13.1201 68.7732 15.3117 68.7732 18.1964C68.7732 21.0811 70.8125 23.2727 73.8529 23.2727Z" fill="#999999"/>
<path d="M79.7964 22.973H82.8182V13.3824H79.7964V22.973ZM79.7964 12.0524H82.8182V9.57983H79.7964V12.0524Z" fill="#999999"/>
<path d="M84.129 26.1387H87.1509V21.9803H87.1879C87.7812 22.7857 88.6525 23.2728 89.8761 23.2728C92.3603 23.2728 94.0103 21.2872 94.0103 18.1777C94.0103 15.293 92.4715 13.1014 89.9503 13.1014C88.6525 13.1014 87.7256 13.6821 87.0767 14.5438H87.0211V13.3824H84.129V26.1387ZM89.0975 20.9126C87.7997 20.9126 87.0582 19.8449 87.0582 18.2901C87.0582 16.7354 87.7256 15.5553 89.0418 15.5553C90.3396 15.5553 90.9514 16.6417 90.9514 18.2901C90.9514 19.9198 90.2469 20.9126 89.0975 20.9126Z" fill="#999999"/>
<path d="M98.9309 23.2728C101.415 23.2728 103.25 22.1863 103.25 20.0884C103.25 17.6345 101.285 17.2037 99.6168 16.9227C98.4118 16.6979 97.3365 16.6043 97.3365 15.9299C97.3365 15.3305 97.9113 15.0495 98.6528 15.0495C99.4871 15.0495 100.062 15.3118 100.173 16.1734H102.954C102.806 14.2815 101.359 13.1014 98.6713 13.1014C96.4281 13.1014 94.5742 14.1504 94.5742 16.1734C94.5742 18.4212 96.3354 18.8708 97.9854 19.1518C99.2461 19.3766 100.395 19.4702 100.395 20.3319C100.395 20.95 99.8208 21.2872 98.9124 21.2872C97.9113 21.2872 97.2809 20.8189 97.1697 19.8636H94.3147C94.4074 21.9803 96.1501 23.2728 98.9309 23.2728Z" fill="#999999"/>
<path d="M107.354 23.2541C108.671 23.2541 109.505 22.7296 110.191 21.793H110.247V22.9731H113.139V13.3824H110.117V18.7397C110.117 19.8823 109.486 20.6691 108.448 20.6691C107.484 20.6691 107.021 20.0884 107.021 19.0394V13.3824H104.017V19.6763C104.017 21.8117 105.167 23.2541 107.354 23.2541Z" fill="#999999"/>
<path d="M114.453 22.9731H117.475V17.5971C117.475 16.4544 118.031 15.649 118.977 15.649C119.885 15.649 120.312 16.2484 120.312 17.2786V22.9731H123.334V17.5971C123.334 16.4544 123.871 15.649 124.835 15.649C125.744 15.649 126.17 16.2484 126.17 17.2786V22.9731H129.192V16.7354C129.192 14.5812 128.117 13.1014 125.966 13.1014C124.742 13.1014 123.723 13.6259 122.981 14.7873H122.944C122.462 13.7571 121.517 13.1014 120.275 13.1014C118.903 13.1014 117.994 13.7571 117.401 14.7498H117.345V13.3824H114.453V22.9731Z" fill="#999999"/>
<path fill-rule="evenodd" clip-rule="evenodd" d="M7.18497 3.53722C6.07985 4.31798 5.08052 5.24111 4.21302 6.28026C7.75805 5.94772 12.2619 6.49072 17.4908 9.13239C23.0745 11.9532 27.5709 12.0486 30.7001 11.4387C30.4161 10.5701 30.0586 9.73531 29.6352 8.94171C26.0531 9.32345 21.4609 8.81816 16.109 6.11447C12.7105 4.39756 9.71478 3.6903 7.18497 3.53722ZM27.5427 5.93236C24.7139 2.73888 20.603 0.729126 16.0274 0.729126C14.6838 0.729126 13.38 0.902478 12.1371 1.22823C13.8205 1.69231 15.6087 2.37126 17.4908 3.32211C21.4091 5.30163 24.792 5.939 27.5427 5.93236ZM31.3691 14.4876C27.5887 15.2419 22.3684 15.087 16.109 11.9247C10.2572 8.9684 5.59966 9.00563 2.45845 9.71096C2.29631 9.74733 2.13799 9.78557 1.98349 9.82538C1.57223 10.7291 1.24394 11.6794 1.0084 12.6663C1.25997 12.5984 1.51994 12.5338 1.78816 12.4736C5.599 11.6179 10.9834 11.6551 17.4908 14.9426C23.3427 17.899 28.0002 17.8618 31.1414 17.1564C31.2491 17.1323 31.3551 17.1073 31.4594 17.0816C31.4708 16.8355 31.4765 16.5878 31.4765 16.3389C31.4765 15.7125 31.4401 15.0948 31.3691 14.4876ZM30.955 20.3758C27.2113 21.0371 22.143 20.7833 16.109 17.735C10.2572 14.7787 5.59966 14.8159 2.45845 15.5212C1.76119 15.6777 1.13395 15.8684 0.580632 16.0697C0.579124 16.1592 0.578369 16.249 0.578369 16.3389C0.578369 24.9599 7.49516 31.9486 16.0274 31.9486C23.1781 31.9486 29.1942 27.0401 30.955 20.3758Z" fill="#999999"/>
</g>
<defs>
<clipPath id="clip0_1_3053">
<rect width="129" height="32" fill="white" transform="translate(0.5 0.5)"/>
</clipPath>
</defs>
</svg>
